<?xml version="1.0" encoding="UTF-8"?>
<svg width="1200pt" height="1200pt" version="1.1" viewBox="0 0 1200 1200" xmlns="http://www.w3.org/2000/svg">
 <g fill="#0d395f">
  <path d="m872.4 568.8c0-150-122.4-272.4-272.4-272.4s-272.4 122.4-272.4 272.4c0 21.602 2.3984 43.199 8.3984 64.801 7.1992 34.801 20.398 56.398 38.398 86.398 3.6016 7.1992 8.3984 14.398 13.199 22.801 6 9.6016 10.801 19.199 16.801 27.602 24 39.602 38.398 62.398 38.398 109.2v112.8c0 28.801 20.398 51.602 48 56.398 12 61.199 48 99.602 109.2 99.602 61.199 0 98.398-38.398 109.2-99.602 27.602-4.8008 48-28.801 48-56.398v-112.8c0-46.801 14.398-70.801 38.398-109.2 4.8008-8.3984 10.801-18 16.801-27.602 4.8008-8.3984 9.6016-15.602 13.199-22.801 18-30 31.199-51.602 38.398-86.398 6.0078-21.602 8.4062-43.203 8.4062-64.801zm-162 339.6h-218.4v-27.602c0-6 0-10.801-1.1992-15.602h219.6c0 4.8008-1.1992 9.6016-1.1992 15.602l-0.003906 27.602zm-10.797 94.801h-199.2c-6 0-9.6016-4.8008-9.6016-9.6016v-37.199h218.4v37.199c1.1992 4.8008-3.5977 9.6016-9.5977 9.6016zm-99.602 98.402c-13.199 0-46.801 0-60-50.398h121.2c-13.199 50.398-48 50.398-61.199 50.398zm217.2-477.6c-6 26.398-15.602 44.398-32.398 72-4.8008 7.1992-8.3984 14.398-13.199 22.801-6 9.6016-10.801 19.199-15.602 26.398-14.398 24-27.602 45.602-36 70.801h-237.6c-8.3984-25.199-20.398-46.801-36-70.801-4.8008-8.3984-10.801-16.801-15.602-26.398-4.8008-8.3984-9.6016-16.801-13.199-22.801-16.801-28.801-26.398-45.602-32.398-73.199-4.8008-18-7.1992-36-7.1992-54 0-123.6 100.8-224.4 224.4-224.4 123.6 0 224.4 100.8 224.4 224.4-2.3984 18-4.7969 36-9.5977 55.199z"/>
  <path d="m1094.4 544.8h-99.602c-13.199 0-24 10.801-24 24s10.801 24 24 24h99.602c13.199 0 24-10.801 24-24s-10.797-24-24-24z"/>
  <path d="m878.4 314.4c6 0 12-2.3984 16.801-7.1992l70.801-70.801c9.6016-9.6016 9.6016-24 0-33.602s-24-9.6016-33.602 0l-70.801 70.801c-9.6016 9.6016-9.6016 24 0 33.602 4.8008 4.8008 10.801 7.1992 16.801 7.1992z"/>
  <path d="m600 198c13.199 0 24-10.801 24-24v-99.602c0-13.199-10.801-24-24-24s-24 10.801-24 24v99.602c0 13.199 10.801 24 24 24z"/>
  <path d="m304.8 307.2c4.8008 4.8008 10.801 7.1992 16.801 7.1992s12-2.3984 16.801-7.1992c9.6016-9.6016 9.6016-24 0-33.602l-70.801-70.801c-9.6016-9.6016-24-9.6016-33.602 0s-9.6016 24 0 33.602z"/>
  <path d="m206.4 544.8h-99.602c-13.199 0-24 10.801-24 24s10.801 24 24 24h99.602c13.199 0 24-10.801 24-24s-10.797-24-24-24z"/>
  <path d="m304.8 830.4-70.801 70.801c-9.6016 9.6016-9.6016 24 0 33.602 4.8008 4.8008 10.801 7.1992 16.801 7.1992s12-2.3984 16.801-7.1992l70.801-70.801c9.6016-9.6016 9.6016-24 0-33.602-9.6016-9.5977-25.203-9.5977-33.602 0z"/>
  <path d="m895.2 830.4c-9.6016-9.6016-24-9.6016-33.602 0-9.6016 9.6016-9.6016 24 0 33.602l70.801 70.801c4.8008 4.8008 10.801 7.1992 16.801 7.1992s12-2.3984 16.801-7.1992c9.6016-9.6016 9.6016-24 0-33.602z"/>
 </g>
</svg>
