<?xml version="1.0" encoding="UTF-8"?>
<svg width="1200pt" height="1200pt" version="1.1" viewBox="0 0 1200 1200" xmlns="http://www.w3.org/2000/svg">
 <path d="m836.48 579.52-36-36c-4.6914-4.6914-12.277-4.6914-16.969 0l-39.516 39.516v-163.03c0-6.625-5.3633-12-12-12h-264c-6.625 0-12 5.375-12 12v360c0 6.625 5.375 12 12 12h264c6.6367 0 12-5.375 12-12v-91.031l92.484-92.484c4.6914-4.6914 4.6914-12.277 0-16.969zm-116.48 188.48h-240v-336h240v175.03l-92.484 92.484c-2.2539 2.2461-3.5156 5.3047-3.5156 8.4844v36c0 6.625 5.3633 12 12 12h36c3.1914 0 6.2383-1.2617 8.4844-3.5156l39.516-39.516zm-52.969-36h-19.031v-19.031l144-144 19.031 19.031zm-151.03-216h168c6.6367 0 12-5.375 12-12v-36c0-6.625-5.3633-12-12-12h-168c-6.625 0-12 5.375-12 12v36c0 6.625 5.375 12 12 12zm12-36h144v12h-144zm-12 108h168c6.6367 0 12-5.375 12-12v-36c0-6.625-5.3633-12-12-12h-168c-6.625 0-12 5.375-12 12v36c0 6.625 5.375 12 12 12zm12-36h144v12h-144zm132 96v-36c0-6.625-5.3633-12-12-12h-132c-6.625 0-12 5.375-12 12v36c0 6.625 5.375 12 12 12h132c6.6367 0 12-5.375 12-12zm-24-12h-108v-12h108z" fill="#fff"/>
</svg>
